<?xml version="1.0" encoding="UTF-8"?>
<svg xmlns="http://www.w3.org/2000/svg" version="1.1" viewBox="0 0 595.28 841.89">
  <defs>
    <style>
      .cls-1 {
        fill: #010101;
      }
    </style>
  </defs>
  <!-- Generator: Adobe Illustrator 28.6.0, SVG Export Plug-In . SVG Version: 1.2.0 Build 709)  -->
  <g>
    <g id="Layer_1">
      <path class="cls-1" d="M350.25,463.76c-2.51-1.73-4.32-4.01-5.42-6.84l-49.57-136.32h-1.75s-4.16,11.93-4.16,11.93c.04-.19.07-.35.11-.54-.13.46-.27.93-.41,1.41l-.25.73.02.05c-1.97,6.54-4.9,15.07-6.81,20.61-3.03,8.78-7.46,17.79-15.98,21.63-2.23,1-5.43,1.58-7.86,1.34-2.5-.24-5.09-.71-7.28-2.02-1.76-1.05-4.36-2.41-5.39-4.24,4.95,8.75,18.87,10.56,27.15,4.7,5.11-3.62,8.2-10.12,9.59-14.49,4.1-12.93,4.45-15.66,6.73-27.17l12.63,34.98c-1.38-1.11-3.19-1.68-4.94-1.44-2.47.34-4.53,2.08-6.11,4-3.11,3.78-5,8.51-8.51,11.93-4.5,4.38-11.09,5.98-17.37,5.99-4.61,0-9.34-.79-13.31-3.13-5.71-3.38-9.32-9.87-9.65-16.5-2.1,3.7-2.45,8.31-1.06,12.33,1.39,4.02,4.46,7.4,8.27,9.29,3.83,1.91,8.29,2.33,12.54,1.77,4.25-.55,8.32-2.03,12.24-3.76,6.28-2.77,12.53-6.45,16.03-12.35,1.19-2,2.03-4.21,3.5-6.01,1.47-1.8,3.83-3.15,6.07-2.56,2.68.71,4.02,3.97,3.46,6.68-.57,2.71-2.53,4.9-4.61,6.73-8.11,7.16-18.49,11.7-27.47,17.69-7.3,4.86-14.64,9.29-20.27,16.22-8.58,10.56-13.16,24.83-6.2,37.43,6.59,11.95,21.77,15.98,34.38,12.66,10.14-2.67,17.9-10.05,23.31-18.78,5.26-8.49,8.76-18.06,10.3-27.93.76-4.9,1.61-8.97,2.04-12.98.06-.59.13-1.16.2-1.72l7.48,20.7,13.28,36.55c1.52,2.72,3.82,4.35,6.9,4.88.42.07,3,.09,4.51.1h11.83c-2.94-.64-5.66-1.82-8.17-3.56ZM308.02,425.19c-1,5.15-2.28,10.32-4.57,15.07-2.26,4.69-5.4,12.6-17.03,17.78-5.94,2.64-13.64,2.96-19.7.68-8.64-3.24-13.99-12.27-14.28-21.28-.2-6.18,1.71-12.3,4.79-17.66,7.86-13.7,22.06-20.51,34.19-29.69,4.14-3.13,10.47-7.11,12.13-12.36.18-.57.31-1.15.38-1.75l5.34,14.78c1.32,11.53,1.02,22.79-1.23,34.42Z"/>
    </g>
  </g>
</svg>